# xmcd
#
# Track frame offsets:
#	150
#	16208
#	34705
#	50079
#	68198
#	82816
#	101182
#	117140
#	129766
#	145661
#	165929
#	181566
#
# Disc length: 2701
#
# Revision: 2
# Processed by: cddbd v1.5.1PL0 Copyright (c) Steve Scherf et al.
# Submitted via: VisiTrax 2.9.9.202 - For more info visit www.synapsa.com
# Normalized: r1:DSETVAR1
#
DISCID=8a0a8b0c
DTITLE=Various Artist - Today's Country Hits - Disc 8
DYEAR=2002
DGENRE=Country
TTITLE0=Andy Griggs - You Won't Ever Be Lonely
TTITLE1=Chris Cagle - I Breathe In
TTITLE2=Clay Walker - My Heart Will Never Know
TTITLE3=Diamond Rio - You're Gone
TTITLE4=Dixie Chicks - There's Your Trouble
TTITLE5=Garth Brooks - Shameless
TTITLE6=George Straight - I Just Want To Dance
TTITLE7=Little Big Town - Don't Waste My Time
TTITLE8=Lonestar - What About Now
TTITLE9=Martina McBride - Whatever You Say
TTITLE10=Toby Keith - How Do You Like Me Now
TTITLE11=Travis Tritt - Modern Day Bonnie and Clyde
EXTD=
EXTT0=
EXTT1=
EXTT2=
EXTT3=
EXTT4=
EXTT5=
EXTT6=
EXTT7=
EXTT8=
EXTT9=
EXTT10=
EXTT11=
PLAYORDER=
